<svg 
 xmlns="http://www.w3.org/2000/svg"
 xmlns:xlink="http://www.w3.org/1999/xlink"
 width="0.67cm" height="0.6cm">
<path fill-rule="evenodd"  fill="#ff0000"
 d="M18.847,6.488 L16.918,12.224 C16.918,12.224 16.758,13.075 15.944,13.075 C15.130,13.075 7.170,13.075 6.199,13.075 C5.229,13.075 5.187,12.009 5.187,12.009 C5.187,12.009 4.152,4.326 4.101,3.862 C4.049,3.399 3.456,3.055 3.456,3.055 L0.903,1.862 C-0.496,1.131 0.140,-0.260 0.903,0.059 C4.141,1.586 5.646,2.339 5.742,2.940 C5.839,3.543 6.010,4.994 6.010,4.994 L6.010,5.004 C6.029,4.998 6.043,4.994 6.043,4.994 C6.043,4.994 15.974,4.994 17.979,4.994 C19.421,4.994 18.847,6.491 18.847,6.488 ZM6.783,11.227 L15.597,11.227 L16.056,9.683 L16.037,9.683 L6.589,9.683 L6.783,11.227 ZM6.198,6.569 L6.405,8.218 C8.473,8.218 14.527,8.218 16.488,8.218 L16.976,6.569 L6.198,6.569 ZM7.629,13.850 C8.496,13.850 9.198,14.552 9.198,15.419 C9.198,16.285 8.496,16.988 7.629,16.988 C6.763,16.988 6.061,16.285 6.061,15.419 C6.061,14.552 6.763,13.850 7.629,13.850 ZM13.980,13.850 C14.846,13.850 15.549,14.552 15.549,15.419 C15.549,16.285 14.846,16.988 13.980,16.988 C13.114,16.988 12.412,16.285 12.412,15.419 C12.412,14.552 13.114,13.850 13.980,13.850 Z"/>
</svg>