<svg 
 xmlns="http://www.w3.org/2000/svg"
 xmlns:xlink="http://www.w3.org/1999/xlink"
 width="0.706cm" height="0.67cm">
<path fill-rule="evenodd"  fill="rgb(99, 99, 99)"
 d="M19.630,9.880 L12.593,9.880 L12.593,11.400 C12.593,11.610 12.427,11.780 12.222,11.780 L7.778,11.780 C7.573,11.780 7.407,11.610 7.407,11.400 L7.407,9.880 L0.370,9.880 C0.166,9.880 0.000,9.710 0.000,9.500 C0.000,9.290 0.166,9.120 0.370,9.120 L7.407,9.120 L7.407,7.600 C7.407,7.390 7.573,7.220 7.778,7.220 L12.222,7.220 C12.427,7.220 12.593,7.390 12.593,7.600 L12.593,9.120 L19.630,9.120 C19.834,9.120 20.000,9.290 20.000,9.500 C20.000,9.710 19.834,9.880 19.630,9.880 ZM11.852,7.980 L8.148,7.980 L8.148,11.020 L11.852,11.020 L11.852,7.980 ZM19.630,2.660 L6.667,2.660 L6.667,4.180 C6.667,4.390 6.501,4.560 6.296,4.560 L1.852,4.560 C1.647,4.560 1.481,4.390 1.481,4.180 L1.481,2.660 L0.370,2.660 C0.166,2.660 0.000,2.490 0.000,2.280 C0.000,2.070 0.166,1.900 0.370,1.900 L1.481,1.900 L1.481,0.380 C1.481,0.170 1.647,-0.000 1.852,-0.000 L6.296,-0.000 C6.501,-0.000 6.667,0.170 6.667,0.380 L6.667,1.900 L19.630,1.900 C19.834,1.900 20.000,2.070 20.000,2.280 C20.000,2.490 19.834,2.660 19.630,2.660 ZM5.926,0.760 L2.222,0.760 L2.222,3.800 L5.926,3.800 L5.926,0.760 ZM0.370,16.340 L13.333,16.340 L13.333,14.820 C13.333,14.610 13.499,14.440 13.704,14.440 L18.148,14.440 C18.353,14.440 18.518,14.610 18.518,14.820 L18.518,16.340 L19.630,16.340 C19.834,16.340 20.000,16.510 20.000,16.720 C20.000,16.930 19.834,17.100 19.630,17.100 L18.518,17.100 L18.518,18.620 C18.518,18.830 18.353,19.000 18.148,19.000 L13.704,19.000 C13.499,19.000 13.333,18.830 13.333,18.620 L13.333,17.100 L0.370,17.100 C0.166,17.100 0.000,16.930 0.000,16.720 C0.000,16.510 0.166,16.340 0.370,16.340 ZM14.074,18.240 L17.778,18.240 L17.778,15.200 L14.074,15.200 L14.074,18.240 Z"/>
</svg>