<svg 
 xmlns="http://www.w3.org/2000/svg"
 xmlns:xlink="http://www.w3.org/1999/xlink"
 width="0.459cm" height="0.494cm">
<path fill-rule="evenodd"  fill="rgb(255, 255, 255)"
 d="M12.281,12.191 L9.340,9.063 C10.096,8.144 10.510,6.988 10.510,5.784 C10.510,2.971 8.272,0.682 5.521,0.682 C2.770,0.682 0.532,2.971 0.532,5.784 C0.532,8.597 2.770,10.885 5.521,10.885 C6.554,10.885 7.538,10.567 8.379,9.962 L11.343,13.114 C11.467,13.245 11.633,13.318 11.812,13.318 C11.981,13.318 12.141,13.252 12.263,13.132 C12.521,12.878 12.530,12.456 12.281,12.191 ZM5.521,2.013 C7.554,2.013 9.209,3.704 9.209,5.784 C9.209,7.863 7.554,9.554 5.521,9.554 C3.488,9.554 1.833,7.863 1.833,5.784 C1.833,3.704 3.488,2.013 5.521,2.013 Z"/>
</svg>